# xmcd CD database file
#
# Track frame offsets:
#	150
#	24879
#	65516
#	90649
#	116629
#	142900
#	163271
#	183005
#	220477
#	290061
#
# Disc length: 3889 seconds
#
# Revision: 0
# Processed by: cddbd v1.5.1PL0 Copyright (c) Steve Scherf et al.
# Submitted via: CDex 1.51
#
DISCID=8e0f2f0a
DTITLE=Steven Halpern - Healing Music
DYEAR=1900
DGENRE=New Age
TTITLE0=Invocation at Eleusis
TTITLE1=Blue ganges
TTITLE2=Higher ground
TTITLE3=Ascension
TTITLE4=The light in your eyes
TTITLE5=Inside the temple
TTITLE6=Deep healing
TTITLE7=Crystal suite
TTITLE8=Chakra balancing
TTITLE9=DataTrack 10
EXTD=
EXTT0=
EXTT1=
EXTT2=
EXTT3=
EXTT4=
EXTT5=
EXTT6=
EXTT7=
EXTT8=
EXTT9=
PLAYORDER=
